<svg width="19" height="19" viewBox="0 0 19 19" fill="none" xmlns="http://www.w3.org/2000/svg">
<g clip-path="url(#clip0_1158_25594)">
<path d="M9.5 15.0418H4.75C4.12011 15.0418 3.51602 14.7916 3.07062 14.3462C2.62522 13.9008 2.375 13.2967 2.375 12.6668V6.3335C2.375 5.70361 2.62522 5.09952 3.07062 4.65412C3.51602 4.20872 4.12011 3.9585 4.75 3.9585H14.25C14.8799 3.9585 15.484 4.20872 15.9294 4.65412C16.3748 5.09952 16.625 5.70361 16.625 6.3335V9.896" stroke="#58A21E" stroke-width="1.58333" stroke-linecap="round" stroke-linejoin="round"/>
<path d="M2.375 7.9165H16.625" stroke="#58A21E" stroke-width="1.58333" stroke-linecap="round" stroke-linejoin="round"/>
<path d="M12.666 15.0415H17.416" stroke="#58A21E" stroke-width="1.58333" stroke-linecap="round" stroke-linejoin="round"/>
<path d="M15.041 12.6665L17.416 15.0415L15.041 17.4165" stroke="#58A21E" stroke-width="1.58333" stroke-linecap="round" stroke-linejoin="round"/>
<path d="M5.54688 11.875H5.55083" stroke="#58A21E" stroke-width="1.58333" stroke-linecap="round" stroke-linejoin="round"/>
<path d="M8.70898 11.875H10.2923" stroke="#58A21E" stroke-width="1.58333" stroke-linecap="round" stroke-linejoin="round"/>
</g>
<defs>
<clipPath id="clip0_1158_25594">
<rect width="19" height="19" fill="white"/>
</clipPath>
</defs>
</svg>
