<svg width="19" height="19" viewBox="0 0 19 19" fill="none" xmlns="http://www.w3.org/2000/svg">
<g clip-path="url(#clip0_862_3572)">
<path d="M15.7344 4.96359C16.2885 5.27867 16.629 5.86846 16.625 6.50575V12.2723C16.625 12.9127 16.2743 13.5033 15.7082 13.8144L10.3645 17.1948C10.0996 17.3403 9.80223 17.4165 9.5 17.4165C9.19777 17.4165 8.90043 17.3403 8.6355 17.1948L3.29175 13.8144C3.0148 13.6631 2.7836 13.4401 2.62233 13.1688C2.46105 12.8975 2.37563 12.5879 2.375 12.2723V6.50496C2.375 5.8645 2.72571 5.27471 3.29175 4.96359L8.6355 1.81275C8.90826 1.66237 9.21466 1.5835 9.52612 1.5835C9.83759 1.5835 10.144 1.66237 10.4167 1.81275L15.7605 4.96359H15.7344Z" stroke="#58A21E" stroke-width="1.58333" stroke-linecap="round" stroke-linejoin="round"/>
<path d="M9.5 12.6665V12.6753" stroke="#58A21E" stroke-width="1.58333" stroke-linecap="round" stroke-linejoin="round"/>
<path d="M9.5 10.2915C9.85605 10.2925 10.2021 10.1736 10.4822 9.95378C10.7623 9.73398 10.9601 9.42618 11.0438 9.08009C11.1274 8.734 11.092 8.36982 10.9432 8.04636C10.7943 7.7229 10.5408 7.45904 10.2236 7.2974C9.90864 7.13606 9.54837 7.08604 9.20139 7.15547C8.85441 7.22489 8.54112 7.40968 8.3125 7.67977" stroke="#58A21E" stroke-width="1.58333" stroke-linecap="round" stroke-linejoin="round"/>
</g>
<defs>
<clipPath id="clip0_862_3572">
<rect width="19" height="19" fill="white"/>
</clipPath>
</defs>
</svg>
