<svg width="19" height="19" viewBox="0 0 19 19" fill="none" xmlns="http://www.w3.org/2000/svg">
<g clip-path="url(#clip0_502_1030)">
<path d="M3.95898 10.2918C3.95898 9.8719 4.1258 9.46918 4.42273 9.17224C4.71966 8.87531 5.12239 8.7085 5.54232 8.7085H13.459C13.8789 8.7085 14.2816 8.87531 14.5786 9.17224C14.8755 9.46918 15.0423 9.8719 15.0423 10.2918V15.0418C15.0423 15.4618 14.8755 15.8645 14.5786 16.1614C14.2816 16.4583 13.8789 16.6252 13.459 16.6252H5.54232C5.12239 16.6252 4.71966 16.4583 4.42273 16.1614C4.1258 15.8645 3.95898 15.4618 3.95898 15.0418V10.2918Z" stroke="#58A21E" stroke-width="1.58333" stroke-linecap="round" stroke-linejoin="round"/>
<path d="M8.70898 12.6667C8.70898 12.8766 8.79239 13.078 8.94086 13.2265C9.08932 13.3749 9.29069 13.4583 9.50065 13.4583C9.71061 13.4583 9.91198 13.3749 10.0604 13.2265C10.2089 13.078 10.2923 12.8766 10.2923 12.6667C10.2923 12.4567 10.2089 12.2553 10.0604 12.1069C9.91198 11.9584 9.71061 11.875 9.50065 11.875C9.29069 11.875 9.08932 11.9584 8.94086 12.1069C8.79239 12.2553 8.70898 12.4567 8.70898 12.6667Z" stroke="#58A21E" stroke-width="1.58333" stroke-linecap="round" stroke-linejoin="round"/>
<path d="M6.33398 8.70833V5.54167C6.33398 4.70181 6.66761 3.89636 7.26148 3.3025C7.85534 2.70863 8.6608 2.375 9.50065 2.375C10.3405 2.375 11.146 2.70863 11.7398 3.3025C12.3337 3.89636 12.6673 4.70181 12.6673 5.54167V8.70833" stroke="#58A21E" stroke-width="1.58333" stroke-linecap="round" stroke-linejoin="round"/>
</g>
<defs>
<clipPath id="clip0_502_1030">
<rect width="19" height="19" fill="white"/>
</clipPath>
</defs>
</svg>
