<svg width="18" height="18" viewBox="0 0 18 18" fill="none" xmlns="http://www.w3.org/2000/svg">
<g clip-path="url(#clip0_487_17148)">
<path d="M13.352 12.9689C13.352 12.9689 13.4097 12.9276 13.502 12.8571C14.8842 11.7884 15.752 10.2396 15.752 8.51538C15.752 5.30088 12.7295 2.69238 9.00195 2.69238C5.27445 2.69238 2.25195 5.30088 2.25195 8.51538C2.25195 11.7314 5.27445 14.2499 9.00195 14.2499C9.31995 14.2499 9.84195 14.2289 10.568 14.1869C11.5145 14.8019 12.896 15.3066 14.105 15.3066C14.4792 15.3066 14.6555 14.9991 14.4155 14.6856C14.051 14.2386 13.5485 13.5224 13.3535 12.9681L13.352 12.9689Z" stroke="#58A21E" stroke-width="1.125" stroke-linecap="round" stroke-linejoin="round"/>
<path d="M5.625 10.125C7.5 12 10.5 12 12.375 10.125" stroke="#58A21E" stroke-width="1.125" stroke-linecap="round" stroke-linejoin="round"/>
</g>
<defs>
<clipPath id="clip0_487_17148">
<rect width="18" height="18" fill="white"/>
</clipPath>
</defs>
</svg>
