<svg width="19" height="19" viewBox="0 0 19 19" fill="none" xmlns="http://www.w3.org/2000/svg">
<g clip-path="url(#clip0_862_3588)">
<path d="M9.50154 2.375C11.3507 4.01104 13.7642 4.86287 16.2307 4.75C16.5898 5.97155 16.6997 7.25283 16.5538 8.51769C16.4079 9.78254 16.0093 11.0052 15.3816 12.1129C14.7538 13.2207 13.9098 14.1909 12.8997 14.966C11.8896 15.7412 10.734 16.3053 9.50154 16.625C8.26908 16.3053 7.11346 15.7412 6.10334 14.966C5.09323 14.1909 4.24923 13.2207 3.62151 12.1129C2.99378 11.0052 2.59514 9.78254 2.44927 8.51769C2.3034 7.25283 2.41328 5.97155 2.77237 4.75C5.23883 4.86287 7.65234 4.01104 9.50154 2.375Z" stroke="#58A21E" stroke-width="1.58333" stroke-linecap="round" stroke-linejoin="round"/>
</g>
<defs>
<clipPath id="clip0_862_3588">
<rect width="19" height="19" fill="white"/>
</clipPath>
</defs>
</svg>
