<svg width="16" height="16" viewBox="0 0 16 16" fill="none" xmlns="http://www.w3.org/2000/svg">
<g clip-path="url(#clip0_502_1736)">
<path d="M1.99805 13.9998V11.3332C1.99805 10.8058 2.15444 10.2902 2.44746 9.85165C2.74048 9.41312 3.15695 9.07133 3.64422 8.86949C4.13149 8.66766 4.66767 8.61485 5.18495 8.71774C5.70224 8.82064 6.17739 9.07461 6.55033 9.44755C6.92327 9.82049 7.17725 10.2956 7.28014 10.8129C7.38304 11.3302 7.33023 11.8664 7.12839 12.3537C6.92656 12.8409 6.58477 13.2574 6.14623 13.5504C5.7077 13.8434 5.19213 13.9998 4.66471 13.9998H1.99805Z" stroke="#757273" stroke-width="0.961538" stroke-linecap="round" stroke-linejoin="round"/>
<path d="M13.9982 2C12.0954 2.26027 10.2982 3.02943 8.79621 4.22629C7.29426 5.42316 6.14331 7.00333 5.46484 8.8" stroke="#757273" stroke-width="0.961538" stroke-linecap="round" stroke-linejoin="round"/>
<path d="M13.9992 2C13.739 3.90279 12.9698 5.70001 11.7729 7.20196C10.5761 8.70391 8.99589 9.85487 7.19922 10.5333" stroke="#757273" stroke-width="0.961538" stroke-linecap="round" stroke-linejoin="round"/>
<path d="M7.06641 6C8.36185 6.59791 9.40183 7.63789 9.99974 8.93333" stroke="#757273" stroke-width="0.961538" stroke-linecap="round" stroke-linejoin="round"/>
</g>
<defs>
<clipPath id="clip0_502_1736">
<rect width="16" height="16" fill="white"/>
</clipPath>
</defs>
</svg>
