<svg width="24" height="24" viewBox="0 0 24 24" fill="none" xmlns="http://www.w3.org/2000/svg">
<path d="M8.19167 20.7547C7.83491 21.1402 7.45071 21.4981 7.06651 21.856C6.98418 21.9386 6.95674 21.8835 6.90186 21.8285C6.353 21.2778 5.80415 20.7272 5.25529 20.2041C4.18503 19.158 3.1422 18.1118 2.07193 17.0656C1.98961 16.983 1.98961 16.9555 2.07193 16.8729C2.42869 16.5425 2.758 16.1846 3.11476 15.8267C3.3343 15.6065 3.63617 15.6065 3.88315 15.8267C5.31018 17.2308 6.7372 18.6073 8.16422 20.0114C8.27399 20.1215 8.35632 20.2592 8.35632 20.4244L8.38376 20.4519C8.30144 20.562 8.27399 20.6722 8.19167 20.7547Z" fill="#757273"/>
<path d="M12.9944 18.5521C13.8726 18.5521 14.7508 18.5521 15.6289 18.5521C16.2876 18.5521 16.8364 18.3594 17.3578 17.974C19.3612 16.4598 20.9254 14.5601 22.1878 12.3852C22.2426 12.3026 22.2701 12.22 22.325 12.1374C22.4622 11.8896 22.3799 11.6418 22.1329 11.5042C21.2821 11.0912 20.3491 11.4216 19.91 12.1649C19.7728 12.3852 19.6356 12.6054 19.5258 12.8257C19.3063 13.2386 18.9495 13.5415 18.5379 13.7617C18.0988 13.982 17.6871 14.2022 17.2481 14.4225C17.1383 14.4775 17.1109 14.5326 17.1383 14.6427C17.2481 15.3585 16.8364 16.0193 16.1778 16.2395C16.0131 16.2946 15.821 16.3221 15.6564 16.3221C14.1745 16.3221 12.72 16.3221 11.2381 16.3221C11.0186 16.3221 10.8814 16.2395 10.8539 16.0468C10.8265 15.9091 10.8813 15.744 11.046 15.6614C11.1009 15.6338 11.1832 15.6063 11.2381 15.6063C12.3633 15.6063 13.5159 15.6063 14.641 15.6063C14.9703 15.6063 15.2996 15.6063 15.6564 15.6063C16.1778 15.6063 16.5346 15.1383 16.3973 14.6427C16.315 14.3674 16.0131 14.1196 15.6289 14.1196C15.135 14.1196 14.641 14.1196 14.147 14.1196C13.7903 14.1196 13.4061 14.1472 13.0493 14.1196C12.3907 14.0646 11.787 13.8718 11.2655 13.4038C10.9637 13.1285 10.5795 12.9633 10.1678 12.9633C9.53666 12.9358 8.87803 12.9633 8.24685 12.9633C7.64311 12.9633 7.1217 13.1836 6.68261 13.6241C6.27097 14.0095 5.85933 14.4225 5.44769 14.8079C5.36536 14.8905 5.25559 14.9456 5.11838 14.9456C4.98116 14.918 4.87139 14.863 4.81651 14.7253C4.76162 14.5877 4.78906 14.45 4.89883 14.3399C5.09093 14.1472 5.28303 13.9544 5.50257 13.7617C5.74956 13.5415 5.9691 13.2937 6.21608 13.0734C6.81982 12.5228 7.50589 12.275 8.32918 12.2475C8.87803 12.2475 9.42689 12.2475 9.97574 12.2475C10.6618 12.2475 11.293 12.4678 11.8418 12.8807C12.2809 13.2111 12.8023 13.3763 13.3512 13.3763C14.0921 13.3763 14.8331 13.3763 15.5741 13.3763C15.9857 13.3763 16.3425 13.5139 16.6718 13.7893C16.6992 13.8168 16.7815 13.8443 16.809 13.8168C17.3029 13.569 17.7969 13.2937 18.2634 13.0459C18.5653 12.8807 18.7574 12.6054 18.9221 12.3026C19.0593 12.0273 19.1965 11.752 19.3886 11.5042C19.9649 10.7884 20.7333 10.4855 21.6663 10.6232C21.9408 10.6507 22.2152 10.7608 22.4622 10.8985C22.9562 11.2013 23.1483 11.8621 22.8738 12.3576C22.2975 13.4038 21.6389 14.3949 20.8705 15.331C20.2119 16.1294 19.5258 16.9003 18.7574 17.561C18.3183 17.9464 17.8518 18.3043 17.3853 18.6622C16.9188 18.9926 16.3699 19.1578 15.821 19.1578C14.641 19.1578 13.461 19.1578 12.3084 19.1578C11.6497 19.1578 10.9911 19.1578 10.3325 19.1578C10.1404 19.1578 9.9483 19.2129 9.7562 19.2404C9.72875 19.2404 9.70131 19.2679 9.70131 19.2679C9.5641 19.3505 9.45433 19.3505 9.34456 19.2679C9.23479 19.1853 9.1799 19.0201 9.20734 18.8825C9.26223 18.7173 9.372 18.6347 9.53666 18.6072C9.89341 18.5246 10.2502 18.5246 10.6344 18.5246C11.4302 18.5521 12.226 18.5521 12.9944 18.5521Z" fill="#757273" stroke="#757273" stroke-width="0.549937" stroke-linecap="round" stroke-linejoin="round"/>
<path d="M19.1131 4.42909C19.1131 4.64934 19.0308 4.84205 18.921 5.03477C18.7015 5.33761 18.4819 5.64045 18.2624 5.91576C18.1526 6.05342 18.1252 6.19107 18.2075 6.35626C18.2624 6.49391 18.3447 6.63157 18.3996 6.79675C18.4545 6.96194 18.5643 7.017 18.7289 7.04453C19.0857 7.0996 19.4424 7.15466 19.7992 7.20972C20.2657 7.26478 20.6225 7.67775 20.6499 8.14577C20.6774 8.47615 20.6774 8.83405 20.6499 9.19195C20.6225 9.63245 20.1834 10.0729 19.7443 10.128C19.3875 10.1831 19.0308 10.2106 18.674 10.2657C18.5368 10.2932 18.427 10.3483 18.3722 10.5134C18.3173 10.6786 18.2624 10.8163 18.1801 10.9539C18.1252 11.0916 18.1252 11.2017 18.2075 11.3118C18.2624 11.422 18.3447 11.5046 18.3996 11.6147C18.5368 11.8074 18.4819 12.0001 18.2898 12.1653C18.1801 12.2479 18.0154 12.2754 17.9331 12.1653C17.7135 11.9175 17.494 11.6973 17.4391 11.3669C17.3842 11.1467 17.4391 10.9539 17.5214 10.7337C17.5763 10.5685 17.6587 10.4308 17.7135 10.2657C17.8782 9.8527 18.1801 9.63245 18.6191 9.54986C18.9759 9.49479 19.3327 9.43973 19.662 9.38467C19.8541 9.35714 19.9638 9.21948 19.9638 9.02677C19.9638 8.77899 19.9638 8.53121 19.9638 8.31096C19.9638 8.11824 19.8541 8.00812 19.662 7.95306C19.3327 7.89799 19.0033 7.84293 18.674 7.78787C18.1801 7.70528 17.7959 7.48503 17.6312 6.96194C17.5763 6.76922 17.4666 6.60404 17.4117 6.41132C17.3293 6.10848 17.3842 5.83317 17.5763 5.58539C17.7959 5.28255 18.0154 5.00724 18.2349 4.7044C18.2624 4.64934 18.3173 4.59427 18.3447 4.53921C18.3996 4.40156 18.3722 4.29143 18.2624 4.18131C18.0977 4.01612 17.9056 3.85094 17.7135 3.68575C17.5214 3.52057 17.3568 3.52057 17.1647 3.65822C16.8628 3.87847 16.5609 4.09872 16.2591 4.31896C15.9572 4.51168 15.6279 4.56674 15.2986 4.42909C15.079 4.3465 14.8869 4.2639 14.6948 4.18131C14.3381 4.01612 14.146 3.74081 14.0911 3.35538C14.0362 2.99748 13.9813 2.63957 13.9264 2.3092C13.899 2.14402 13.7618 2.00636 13.5971 2.00636C13.3501 2.00636 13.1032 2.00636 12.8562 2.00636C12.6641 2.00636 12.5269 2.11648 12.4994 2.3092C12.4445 2.69464 12.3622 3.1076 12.3073 3.49303C12.2524 3.79588 12.0878 4.04365 11.8133 4.18131C11.5115 4.3465 11.2096 4.48415 10.8803 4.53921C10.6059 4.56674 10.3314 4.51168 10.1119 4.31896C9.83747 4.12625 9.56304 3.906 9.28862 3.71328C9.06908 3.5481 8.90442 3.57563 8.71232 3.76834C8.54766 3.93353 8.41045 4.07119 8.24579 4.23637C8.10858 4.37403 8.08114 4.53921 8.21835 4.7044C8.41045 4.97971 8.62999 5.28255 8.84953 5.55786C9.1514 5.94329 9.17885 6.32873 9.01419 6.76922C8.93186 6.93441 8.87698 7.0996 8.82209 7.29231C8.68488 7.62268 8.41045 7.8154 8.05369 7.89799C7.69694 7.98059 7.34018 8.00812 6.95598 8.06318C6.709 8.09071 6.57179 8.22837 6.57179 8.50368C6.57179 8.72393 6.57179 8.94417 6.57179 9.13689C6.57179 9.35714 6.709 9.49479 6.92854 9.52232C7.2853 9.57739 7.6695 9.63245 8.02625 9.68751C8.38301 9.7701 8.65743 9.96282 8.82209 10.2932C8.90442 10.5134 9.01419 10.7062 9.06907 10.9539C9.12396 11.1191 9.12396 11.2843 9.09652 11.4495C9.06907 11.6422 8.93186 11.7248 8.71232 11.6973C8.54766 11.6697 8.41045 11.5596 8.41045 11.3669C8.43789 11.0365 8.27324 10.7887 8.13602 10.5134C8.05369 10.3483 7.86159 10.3483 7.69694 10.3207C7.36763 10.2657 7.01087 10.2381 6.68156 10.1555C6.26992 10.0179 5.9406 9.63245 5.91316 9.19195C5.88572 8.86158 5.88572 8.53121 5.91316 8.20084C5.9406 7.78787 6.29736 7.34737 6.73644 7.26478C7.0932 7.18219 7.44995 7.15466 7.77927 7.0996C7.97137 7.07206 8.13602 6.98947 8.19091 6.79675C8.21835 6.6591 8.30068 6.54898 8.35556 6.41132C8.43789 6.24613 8.41045 6.10848 8.30068 5.97082C8.13602 5.75058 7.97137 5.55786 7.80671 5.33761C7.6695 5.17243 7.53228 4.97971 7.4774 4.75946C7.39507 4.40156 7.4774 4.07119 7.72438 3.79588C7.94392 3.5481 8.19091 3.30032 8.43789 3.05254C8.73976 2.7497 9.17885 2.7497 9.56304 2.99748C9.86491 3.21772 10.1668 3.41044 10.4412 3.63069C10.6059 3.76834 10.7705 3.79588 10.9901 3.68575C11.1273 3.60316 11.2645 3.5481 11.4017 3.52057C11.5664 3.4655 11.6212 3.35538 11.6487 3.21772C11.7036 2.83229 11.7585 2.47439 11.8133 2.08895C11.8682 1.64846 12.2524 1.26302 12.6915 1.23549C13.0483 1.20796 13.405 1.20796 13.7618 1.23549C14.2283 1.26302 14.6399 1.67599 14.6948 2.14402C14.7497 2.50192 14.8046 2.83229 14.8595 3.19019C14.8869 3.32785 14.9418 3.43797 15.1065 3.49303C15.2437 3.5481 15.3809 3.60316 15.5181 3.68575C15.7102 3.79588 15.8749 3.74081 16.0121 3.63069C16.2865 3.43797 16.5609 3.21772 16.8354 3.02501C17.3019 2.69464 17.8782 2.7497 18.2898 3.13513C18.4819 3.32785 18.6466 3.49303 18.8387 3.68575C19.0308 3.87847 19.1131 4.12625 19.1131 4.42909Z" fill="#757273" stroke="#757273" stroke-width="0.549937" stroke-linecap="round" stroke-linejoin="round"/>
<path d="M16.8633 8.80654C16.8084 9.96285 16.2595 10.9815 15.1618 11.6698C13.3231 12.8261 10.8533 12.0827 9.94768 10.1005C9.3165 8.69642 9.67326 7.04456 10.8533 6.02591C11.6766 5.31011 12.6371 5.00727 13.7073 5.17245C15.0246 5.36517 15.9851 6.05344 16.5614 7.26481C16.7535 7.67777 16.8358 8.11827 16.8633 8.80654ZM13.2408 11.5321C14.7776 11.5046 16.0949 10.3207 16.1223 8.72395C16.1497 7.12715 14.8599 5.8332 13.2408 5.80566C11.704 5.77813 10.3593 7.07209 10.3593 8.5863C10.3319 10.2106 11.5942 11.5046 13.2408 11.5321Z" fill="#757273" stroke="#757273" stroke-width="0.549937" stroke-linecap="round" stroke-linejoin="round"/>
</svg>
