<svg width="16" height="16" viewBox="0 0 16 16" fill="none" xmlns="http://www.w3.org/2000/svg">
<path d="M5.50001 12.4998C5.50001 12.765 5.39466 13.0194 5.20712 13.2069C5.01958 13.3945 4.76523 13.4998 4.50001 13.4998C4.2348 13.4998 3.98044 13.3945 3.79291 13.2069C3.60537 13.0194 3.50001 12.765 3.50001 12.4998M5.50001 12.4998C5.50001 12.2346 5.39466 11.9803 5.20712 11.7927C5.01958 11.6052 4.76523 11.4998 4.50001 11.4998C4.2348 11.4998 3.98044 11.6052 3.79291 11.7927C3.60537 11.9803 3.50001 12.2346 3.50001 12.4998M5.50001 12.4998H9.50001M3.50001 12.4998H2.25001C2.0511 12.4998 1.86033 12.4208 1.71968 12.2802C1.57903 12.1395 1.50001 11.9487 1.50001 11.7498V9.49983M9.50001 12.4998H11M9.50001 12.4998V9.49983M1.50001 9.49983V4.40983C1.49895 4.22728 1.56565 4.05082 1.68721 3.91462C1.80876 3.77841 1.97652 3.69214 2.15801 3.6725C4.38004 3.44185 6.61998 3.44185 8.84201 3.6725C9.21868 3.71116 9.50001 4.03116 9.50001 4.40983V5.0485M1.50001 9.49983H9.50001M13 12.4998C13 12.765 12.8947 13.0194 12.7071 13.2069C12.5196 13.3945 12.2652 13.4998 12 13.4998C11.7348 13.4998 11.4804 13.3945 11.2929 13.2069C11.1054 13.0194 11 12.765 11 12.4998M13 12.4998C13 12.2346 12.8947 11.9803 12.7071 11.7927C12.5196 11.6052 12.2652 11.4998 12 11.4998C11.7348 11.4998 11.4804 11.6052 11.2929 11.7927C11.1054 11.9803 11 12.2346 11 12.4998M13 12.4998H13.75C14.164 12.4998 14.5027 12.1638 14.4767 11.7505C14.3427 9.54893 13.6013 7.42754 12.3347 5.62183C12.214 5.45268 12.0565 5.31318 11.874 5.21385C11.6916 5.11453 11.4889 5.05798 11.2813 5.0485H9.50001M9.50001 5.0485V9.49983" stroke="#757273" stroke-width="0.961538" stroke-linecap="round" stroke-linejoin="round"/>
</svg>
