<svg width="30" height="30" viewBox="0 0 30 30" fill="none" xmlns="http://www.w3.org/2000/svg">
<rect width="30" height="30" rx="7" fill="#28609B"/>
<g clip-path="url(#clip0_424_6388)">
<path d="M12.1822 11.0362L7.3972 11.7299L7.31245 11.7472C7.18415 11.7813 7.06719 11.8487 6.97352 11.9428C6.87984 12.0368 6.8128 12.1541 6.77924 12.2825C6.74569 12.4109 6.74682 12.5459 6.78252 12.6738C6.81822 12.8016 6.88721 12.9177 6.98245 13.0102L10.4489 16.3844L9.63145 21.1507L9.6217 21.2332C9.61384 21.3659 9.6414 21.4983 9.70153 21.6168C9.76167 21.7354 9.85223 21.8358 9.96395 21.9078C10.0757 21.9799 10.2045 22.0209 10.3373 22.0268C10.4701 22.0326 10.6021 22.0031 10.7197 21.9412L14.9992 19.6912L19.2689 21.9412L19.3439 21.9757C19.4677 22.0245 19.6023 22.0394 19.7338 22.019C19.8652 21.9986 19.9889 21.9436 20.0921 21.8596C20.1953 21.7757 20.2744 21.6658 20.3211 21.5412C20.3678 21.4166 20.3805 21.2818 20.3579 21.1507L19.5397 16.3844L23.0077 13.0094L23.0662 12.9457C23.1498 12.8428 23.2046 12.7195 23.225 12.5885C23.2454 12.4575 23.2308 12.3235 23.1825 12.2C23.1343 12.0765 23.0541 11.968 22.9503 11.8856C22.8465 11.8031 22.7227 11.7497 22.5914 11.7307L17.8064 11.0362L15.6674 6.70119C15.6056 6.57559 15.5097 6.46983 15.3908 6.39587C15.2719 6.32191 15.1347 6.28271 14.9947 6.28271C14.8547 6.28271 14.7174 6.32191 14.5986 6.39587C14.4797 6.46983 14.3838 6.57559 14.3219 6.70119L12.1822 11.0362Z" fill="white"/>
</g>
<defs>
<clipPath id="clip0_424_6388">
<rect width="18" height="18" fill="white" transform="translate(6 5.53125)"/>
</clipPath>
</defs>
</svg>
