<svg width="46" height="19" viewBox="0 0 46 19" fill="none" xmlns="http://www.w3.org/2000/svg">
<path d="M3.19442 7.41158C3.19442 6.91921 3.59846 6.72976 4.26776 6.72976C5.22727 6.72976 6.43936 7.02024 7.39897 7.53791V4.57067C6.35103 4.15403 5.3157 3.98988 4.26776 3.98988C1.70455 3.98988 0 5.3283 0 7.56321C0 11.0479 4.79794 10.4925 4.79794 11.995C4.79794 12.5757 4.29297 12.7652 3.58585 12.7652C2.53791 12.7652 1.19949 12.3358 0.138849 11.7551V14.7601C1.31312 15.2652 2.5 15.4798 3.58585 15.4798C6.21209 15.4798 8.01767 14.1793 8.01767 11.9192C8.00506 8.1566 3.19442 8.82573 3.19442 7.41158ZM11.7298 1.46467L8.64897 2.12118L8.63636 12.2348C8.63636 14.1036 10.0379 15.4798 11.9066 15.4798C12.9419 15.4798 13.6995 15.2904 14.1161 15.0631V12.5C13.7122 12.6642 11.7172 13.2449 11.7172 11.3762V6.89391H14.1161V4.20455H11.7172L11.7298 1.46467ZM18.043 5.13885L17.8409 4.20455H15.1136V15.2525H18.2702V7.76518C19.0151 6.79297 20.2778 6.96973 20.6692 7.10858V4.20455C20.2652 4.053 18.7879 3.77521 18.043 5.13885ZM21.4394 4.20455H24.6086V15.2525H21.4394V4.20455ZM21.4394 3.24494L24.6086 2.56312V0L21.4394 0.669212V3.24494ZM31.1995 3.98988C29.9621 3.98988 29.1666 4.57067 28.7248 4.97479L28.5605 4.19194H25.7829V18.9141L28.9394 18.2449L28.9521 14.6717C29.4066 15 30.0757 15.4672 31.1869 15.4672C33.447 15.4672 35.5051 13.649 35.5051 9.64648C35.4925 5.98482 33.4091 3.98988 31.1995 3.98988ZM30.4419 12.6894C29.697 12.6894 29.255 12.4243 28.9521 12.096L28.9394 7.41158C29.2677 7.04545 29.7222 6.79297 30.4419 6.79297C31.5909 6.79297 32.3864 8.08079 32.3864 9.73482C32.3864 11.4268 31.6035 12.6894 30.4419 12.6894ZM45.4545 9.77273C45.4545 6.54039 43.8889 3.98988 40.8965 3.98988C37.8913 3.98988 36.0732 6.54048 36.0732 9.74751C36.0732 13.5479 38.2197 15.4672 41.3004 15.4672C42.803 15.4672 43.9394 15.1262 44.7979 14.6465V12.1212C43.9395 12.5505 42.9545 12.8157 41.7045 12.8157C40.4798 12.8157 39.3939 12.3864 39.2551 10.8965H45.4293C45.4293 10.7322 45.4545 10.0757 45.4545 9.77273ZM39.2172 8.57324C39.2172 7.14648 40.0884 6.553 40.8839 6.553C41.654 6.553 42.4748 7.14648 42.4748 8.57324H39.2172Z" fill="#6772E5"/>
</svg>
