<svg width="19" height="19" viewBox="0 0 19 19" fill="none" xmlns="http://www.w3.org/2000/svg">
<g clip-path="url(#clip0_862_3602)">
<path d="M5.54102 15.8335H13.4577" stroke="#58A21E" stroke-width="1.58333" stroke-linecap="round" stroke-linejoin="round"/>
<path d="M4.75 4.75016L9.5 3.9585L14.25 4.75016" stroke="#58A21E" stroke-width="1.58333" stroke-linecap="round" stroke-linejoin="round"/>
<path d="M9.5 2.375V15.8333" stroke="#58A21E" stroke-width="1.58333" stroke-linecap="round" stroke-linejoin="round"/>
<path d="M7.125 9.5L4.75 4.75L2.375 9.5C2.375 10.1299 2.62522 10.734 3.07062 11.1794C3.51602 11.6248 4.12011 11.875 4.75 11.875C5.37989 11.875 5.98398 11.6248 6.42938 11.1794C6.87478 10.734 7.125 10.1299 7.125 9.5Z" stroke="#58A21E" stroke-width="1.58333" stroke-linecap="round" stroke-linejoin="round"/>
<path d="M16.625 9.5L14.25 4.75L11.875 9.5C11.875 10.1299 12.1252 10.734 12.5706 11.1794C13.016 11.6248 13.6201 11.875 14.25 11.875C14.8799 11.875 15.484 11.6248 15.9294 11.1794C16.3748 10.734 16.625 10.1299 16.625 9.5Z" stroke="#58A21E" stroke-width="1.58333" stroke-linecap="round" stroke-linejoin="round"/>
</g>
<defs>
<clipPath id="clip0_862_3602">
<rect width="19" height="19" fill="white"/>
</clipPath>
</defs>
</svg>
