<svg width="100" height="100" viewBox="0 0 100 100" fill="none" xmlns="http://www.w3.org/2000/svg">
<path d="M49.9935 0C53.8824 0.000236384 57.6381 1.41685 60.5585 3.985L61.3285 4.71L64.8185 8.2C65.7763 9.15156 67.027 9.75227 68.3685 9.905L69.0435 9.945H74.0435C78.1296 9.94477 82.0609 11.5079 85.0313 14.3137C88.0017 17.1195 89.7861 20.9555 90.0185 25.035L90.0435 25.945V30.945C90.0435 32.295 90.5035 33.61 91.3335 34.66L91.7835 35.16L95.2685 38.65C98.1571 41.5222 99.8414 45.3881 99.9779 49.4593C100.115 53.5306 98.6931 57.5006 96.0035 60.56L95.2785 61.33L91.7885 64.82C90.8369 65.7778 90.2362 67.0285 90.0835 68.37L90.0435 69.045V74.045C90.0437 78.1311 88.4806 82.0624 85.6748 85.0328C82.8689 88.0033 79.0329 89.7876 74.9535 90.02L74.0435 90.045H69.0435C67.6954 90.0455 66.3867 90.4999 65.3285 91.335L64.8285 91.785L61.3385 95.27C58.4662 98.1586 54.6004 99.8429 50.5291 99.9795C46.4579 100.116 42.4878 98.6946 39.4285 96.005L38.6585 95.28L35.1685 91.79C34.2107 90.8384 32.9599 90.2377 31.6185 90.085L30.9435 90.045H25.9435C21.8574 90.0452 17.926 88.4822 14.9556 85.6763C11.9852 82.8705 10.2009 79.0345 9.96847 74.955L9.94347 74.045V69.045C9.94302 67.6969 9.4886 66.3883 8.65347 65.33L8.20346 64.83L4.71846 61.34C1.82987 58.4678 0.145579 54.6019 0.00900375 50.5307C-0.127572 46.4594 1.29386 42.4894 3.98347 39.43L4.70847 38.66L8.19847 35.17C9.15002 34.2122 9.75073 32.9615 9.90347 31.62L9.94347 30.945V25.945L9.96847 25.035C10.1917 21.1122 11.8506 17.4088 14.6289 14.6304C17.4072 11.8521 21.1107 10.1933 25.0335 9.97L25.9435 9.945H30.9435C32.2916 9.94456 33.6002 9.49014 34.6585 8.655L35.1585 8.205L38.6485 4.72C40.1351 3.22444 41.9028 2.03753 43.8498 1.2275C45.7968 0.417467 47.8847 0.00030538 49.9935 0ZM68.4785 36.41C67.5408 35.4727 66.2693 34.9461 64.9435 34.9461C63.6176 34.9461 62.3461 35.4727 61.4085 36.41L51.4069 46.4085C50.6557 47.1595 50.2801 47.535 49.9285 47.8153C47.0115 50.1403 42.8748 50.1408 39.9573 47.8164C39.6056 47.5362 39.2299 47.1608 38.4785 46.41L38.0085 45.995C37.0035 45.2179 35.7404 44.8525 34.4758 44.973C33.2112 45.0935 32.0399 45.6908 31.1997 46.6436C30.3595 47.5964 29.9136 48.8333 29.9523 50.1031C29.9911 51.3728 30.5117 52.5802 31.4085 53.48L41.4085 63.48L41.8785 63.895C42.8405 64.6413 44.0417 65.0109 45.2569 64.9344C46.472 64.858 47.6175 64.3409 48.4785 63.48L68.4785 43.48L68.8935 43.01C69.6397 42.048 70.0093 40.8467 69.9329 39.6316C69.8565 38.4165 69.3393 37.271 68.4785 36.41Z" fill="url(#paint0_linear_630_2370)"/>
<defs>
<linearGradient id="paint0_linear_630_2370" x1="49.9935" y1="0" x2="49.9935" y2="99.9885" gradientUnits="userSpaceOnUse">
<stop stop-color="#6EC22C"/>
<stop offset="1" stop-color="#58A21E"/>
</linearGradient>
</defs>
</svg>
