<svg width="19" height="19" viewBox="0 0 19 19" fill="none" xmlns="http://www.w3.org/2000/svg">
<g clip-path="url(#clip0_1124_2582)">
<path d="M13.4577 6.33317V3.95817C13.4577 3.74821 13.3743 3.54684 13.2258 3.39838C13.0773 3.24991 12.876 3.1665 12.666 3.1665H4.74935C4.32942 3.1665 3.9267 3.33332 3.62976 3.63025C3.33283 3.92718 3.16602 4.32991 3.16602 4.74984M3.16602 4.74984C3.16602 5.16976 3.33283 5.57249 3.62976 5.86942C3.9267 6.16636 4.32942 6.33317 4.74935 6.33317H14.2493C14.4593 6.33317 14.6607 6.41658 14.8091 6.56504C14.9576 6.71351 15.041 6.91487 15.041 7.12484V9.49984M3.16602 4.74984V14.2498C3.16602 14.6698 3.33283 15.0725 3.62976 15.3694C3.9267 15.6664 4.32942 15.8332 4.74935 15.8332H14.2493C14.4593 15.8332 14.6607 15.7498 14.8091 15.6013C14.9576 15.4528 15.041 15.2515 15.041 15.0415V12.6665" stroke="#58A21E" stroke-width="1.1875" stroke-linecap="round" stroke-linejoin="round"/>
<path d="M15.834 9.5V12.6667H12.6673C12.2474 12.6667 11.8447 12.4999 11.5477 12.2029C11.2508 11.906 11.084 11.5033 11.084 11.0833C11.084 10.6634 11.2508 10.2607 11.5477 9.96375C11.8447 9.66682 12.2474 9.5 12.6673 9.5H15.834Z" stroke="#58A21E" stroke-width="1.1875" stroke-linecap="round" stroke-linejoin="round"/>
</g>
<defs>
<clipPath id="clip0_1124_2582">
<rect width="19" height="19" fill="white"/>
</clipPath>
</defs>
</svg>
